<?xml version="1.0" encoding="UTF-8"?>
<!DOCTYPE svg PUBLIC "-//W3C//DTD SVG 1.1//EN" "http://www.w3.org/Graphics/SVG/1.1/DTD/svg11.dtd">
<svg xmlns="http://www.w3.org/2000/svg" version="1.1" width="696px" height="566px" style="shape-rendering:geometricPrecision; text-rendering:geometricPrecision; image-rendering:optimizeQuality; fill-rule:evenodd; clip-rule:evenodd" xmlns:xlink="http://www.w3.org/1999/xlink">
<g><path style="opacity:0.989" fill="#fefffe" d="M -0.5,228.5 C -0.5,154.167 -0.5,79.8333 -0.5,5.5C 0.971672,3.86569 2.63834,2.36569 4.5,1C 20.8333,0.333333 37.1667,0.333333 53.5,1C 100.5,30.6667 147.5,60.3333 194.5,90C 199.244,95.3777 199.744,101.211 196,107.5C 190,116.833 184,126.167 178,135.5C 174.257,139.259 169.757,140.426 164.5,139C 128.915,116.625 93.4155,94.1249 58,71.5C 57.6667,123.833 57.3333,176.167 57,228.5C 55.8333,230.333 54.3333,231.833 52.5,233C 36.5,233.667 20.5,233.667 4.5,233C 2.63834,231.634 0.971672,230.134 -0.5,228.5 Z"/></g>
<g><path style="opacity:0.998" fill="#fefffe" d="M 264.5,0.5 C 280.503,0.333406 296.503,0.500072 312.5,1C 314.333,2.16667 315.833,3.66667 317,5.5C 317.667,79.8333 317.667,154.167 317,228.5C 315.833,230.333 314.333,231.833 312.5,233C 296.5,233.667 280.5,233.667 264.5,233C 262.667,231.833 261.167,230.333 260,228.5C 259.333,154.167 259.333,79.8333 260,5.5C 261.366,3.63834 262.866,1.97167 264.5,0.5 Z"/></g>
<g><path style="opacity:0.998" fill="#fefffe" d="M -0.5,325.5 C -0.5,307.5 -0.5,289.5 -0.5,271.5C 0.971672,269.866 2.63834,268.366 4.5,267C 107.167,266.333 209.833,266.333 312.5,267C 314.333,268.167 315.833,269.667 317,271.5C 317.667,289.5 317.667,307.5 317,325.5C 315.833,327.333 314.333,328.833 312.5,330C 209.833,330.667 107.167,330.667 4.5,330C 2.63834,328.634 0.971672,327.134 -0.5,325.5 Z"/></g>
<g><path style="opacity:0.91" fill="#fefffe" d="M 345.5,270.5 C 347.833,270.5 350.167,270.5 352.5,270.5C 352.5,271.833 352.5,273.167 352.5,274.5C 361.972,274.973 366.639,279.973 366.5,289.5C 366.482,298.854 361.815,304.187 352.5,305.5C 352.5,306.833 352.5,308.167 352.5,309.5C 350.167,309.5 347.833,309.5 345.5,309.5C 345.5,308.167 345.5,306.833 345.5,305.5C 335.789,304.954 331.123,299.787 331.5,290C 331.248,280.313 335.915,275.146 345.5,274.5C 345.5,273.167 345.5,271.833 345.5,270.5 Z M 343.5,281.5 C 344.814,283.915 345.481,286.748 345.5,290C 345.167,292.833 344.833,295.667 344.5,298.5C 339.332,294.546 338.166,289.546 341,283.5C 341.995,282.934 342.828,282.267 343.5,281.5 Z M 352.5,281.5 C 356.876,282.212 358.876,284.879 358.5,289.5C 358.654,293.527 356.987,296.527 353.5,298.5C 352.505,292.872 352.171,287.206 352.5,281.5 Z"/></g>
<g><path style="opacity:0.858" fill="#fefffe" d="M 369.5,270.5 C 372.187,270.336 374.854,270.503 377.5,271C 380.473,276.458 383.806,281.625 387.5,286.5C 390.384,281.399 392.718,276.066 394.5,270.5C 397.187,270.336 399.854,270.503 402.5,271C 402.957,271.414 403.291,271.914 403.5,272.5C 399,282.167 394.5,291.833 390,301.5C 385.631,308.458 379.464,310.791 371.5,308.5C 371.244,306.208 371.577,304.041 372.5,302C 377.451,303.36 381.118,301.694 383.5,297C 378.75,288.832 373.75,280.832 368.5,273C 369.252,272.329 369.586,271.496 369.5,270.5 Z"/></g>
<g><path style="opacity:0.912" fill="#fefffe" d="M 408.5,270.5 C 410.792,270.244 412.959,270.577 415,271.5C 415.499,276.155 415.666,280.821 415.5,285.5C 420.5,285.5 425.5,285.5 430.5,285.5C 430.5,280.5 430.5,275.5 430.5,270.5C 433.119,270.232 435.619,270.565 438,271.5C 438.5,283.829 438.667,296.162 438.5,308.5C 435.833,308.5 433.167,308.5 430.5,308.5C 430.5,303.167 430.5,297.833 430.5,292.5C 425.5,292.5 420.5,292.5 415.5,292.5C 415.5,297.833 415.5,303.167 415.5,308.5C 412.833,308.5 410.167,308.5 407.5,308.5C 407.187,295.754 407.52,283.087 408.5,270.5 Z"/></g>
<g><path style="opacity:0.889" fill="#fefffe" d="M 446.5,270.5 C 448.833,270.5 451.167,270.5 453.5,270.5C 453.334,275.179 453.501,279.845 454,284.5C 458.534,280.301 462.701,275.801 466.5,271C 469.429,270.223 472.263,270.39 475,271.5C 475.667,272.167 475.667,272.833 475,273.5C 469.787,278.377 464.954,283.544 460.5,289C 465.32,294.488 470.154,299.988 475,305.5C 475.483,306.448 475.649,307.448 475.5,308.5C 472.482,308.665 469.482,308.498 466.5,308C 462.45,303.405 458.283,298.905 454,294.5C 453.501,299.155 453.334,303.821 453.5,308.5C 450.833,308.5 448.167,308.5 445.5,308.5C 445.187,295.754 445.52,283.087 446.5,270.5 Z"/></g>
<g><path style="opacity:0.909" fill="#fefffe" d="M 482.5,270.5 C 484.833,270.5 487.167,270.5 489.5,270.5C 489.5,280.833 489.5,291.167 489.5,301.5C 493.833,301.5 498.167,301.5 502.5,301.5C 502.334,291.494 502.5,281.494 503,271.5C 505.381,270.565 507.881,270.232 510.5,270.5C 510.5,280.833 510.5,291.167 510.5,301.5C 511.822,301.33 512.989,301.663 514,302.5C 514.499,307.155 514.666,311.821 514.5,316.5C 507.5,318.167 504.833,315.5 506.5,308.5C 498.167,308.5 489.833,308.5 481.5,308.5C 481.187,295.754 481.52,283.087 482.5,270.5 Z"/></g>
<g><path style="opacity:0.905" fill="#fefffe" d="M 518.5,270.5 C 521.119,270.232 523.619,270.565 526,271.5C 526.333,278.833 526.667,286.167 527,293.5C 531.698,286.299 536.198,278.965 540.5,271.5C 543.034,270.223 545.534,270.223 548,271.5C 548.5,283.829 548.667,296.162 548.5,308.5C 545.833,308.5 543.167,308.5 540.5,308.5C 540.666,301.159 540.5,293.826 540,286.5C 535.5,293.5 531,300.5 526.5,307.5C 523.914,308.48 521.247,308.813 518.5,308.5C 518.5,295.833 518.5,283.167 518.5,270.5 Z"/></g>
<g><path style="opacity:0.887" fill="#fefffe" d="M 565.5,270.5 C 582.752,269.929 589.919,278.262 587,295.5C 583.052,307.725 574.885,311.891 562.5,308C 558.132,305.774 555.298,302.274 554,297.5C 553.139,291.415 553.473,285.415 555,279.5C 557.489,275.168 560.989,272.168 565.5,270.5 Z M 567.5,277.5 C 571.192,276.971 574.358,277.971 577,280.5C 580.138,286.543 580.138,292.543 577,298.5C 572.959,303.313 568.625,303.646 564,299.5C 561.165,293.981 560.831,288.314 563,282.5C 564.025,280.313 565.525,278.646 567.5,277.5 Z"/></g>
<g><path style="opacity:0.912" fill="#fefffe" d="M 592.5,270.5 C 594.833,270.5 597.167,270.5 599.5,270.5C 599.5,275.5 599.5,280.5 599.5,285.5C 604.5,285.5 609.5,285.5 614.5,285.5C 614.334,280.821 614.501,276.155 615,271.5C 617.333,270.167 619.667,270.167 622,271.5C 622.5,283.829 622.667,296.162 622.5,308.5C 619.833,308.5 617.167,308.5 614.5,308.5C 614.5,303.167 614.5,297.833 614.5,292.5C 609.5,292.5 604.5,292.5 599.5,292.5C 599.5,297.833 599.5,303.167 599.5,308.5C 596.833,308.5 594.167,308.5 591.5,308.5C 591.187,295.754 591.52,283.087 592.5,270.5 Z"/></g>
<g><path style="opacity:0.892" fill="#fefffe" d="M 639.5,270.5 C 642.833,270.5 646.167,270.5 649.5,270.5C 653.36,282.245 657.527,293.912 662,305.5C 663.188,304.437 663.688,303.103 663.5,301.5C 667.453,300.985 669.619,298.652 670,294.5C 671.383,286.553 672.216,278.553 672.5,270.5C 679.833,270.5 687.167,270.5 694.5,270.5C 694.5,283.167 694.5,295.833 694.5,308.5C 691.833,308.5 689.167,308.5 686.5,308.5C 686.5,298.167 686.5,287.833 686.5,277.5C 684.5,277.5 682.5,277.5 680.5,277.5C 680.368,286.879 678.535,295.879 675,304.5C 673.833,305.667 672.667,306.833 671.5,308C 665.509,308.499 659.509,308.666 653.5,308.5C 653.551,302.087 650.384,299.754 644,301.5C 638.036,299.927 634.536,302.093 633.5,308C 630.854,308.497 628.187,308.664 625.5,308.5C 629.606,295.622 634.273,282.955 639.5,270.5 Z M 643.5,281.5 C 645.531,285.237 647.198,289.237 648.5,293.5C 645.572,294.484 642.572,294.817 639.5,294.5C 640.546,290.076 641.879,285.743 643.5,281.5 Z"/></g>
<g><path style="opacity:0.998" fill="#fefffe" d="M -0.5,442.5 C -0.5,424.5 -0.5,406.5 -0.5,388.5C 0.971672,386.866 2.63834,385.366 4.5,384C 107.167,383.333 209.833,383.333 312.5,384C 314.333,385.167 315.833,386.667 317,388.5C 317.667,406.5 317.667,424.5 317,442.5C 315.833,444.333 314.333,445.833 312.5,447C 209.833,447.667 107.167,447.667 4.5,447C 2.63834,445.634 0.971672,444.134 -0.5,442.5 Z"/></g>
<g><path style="opacity:0.815" fill="#fefffe" d="M 450.5,386.5 C 457.004,386.138 458.671,388.638 455.5,394C 448.369,395.211 446.702,392.711 450.5,386.5 Z"/></g>
<g><path style="opacity:0.796" fill="#fefffe" d="M 463.5,386.5 C 470.285,385.626 472.285,388.126 469.5,394C 462.54,395.216 460.54,392.716 463.5,386.5 Z"/></g>
<g><path style="opacity:0.912" fill="#fefffe" d="M 334.5,395.5 C 336.833,395.5 339.167,395.5 341.5,395.5C 341.5,400.5 341.5,405.5 341.5,410.5C 346.5,410.5 351.5,410.5 356.5,410.5C 356.334,405.821 356.501,401.155 357,396.5C 359.333,395.167 361.667,395.167 364,396.5C 364.5,408.829 364.667,421.162 364.5,433.5C 361.833,433.5 359.167,433.5 356.5,433.5C 356.5,428.167 356.5,422.833 356.5,417.5C 351.5,417.5 346.5,417.5 341.5,417.5C 341.5,422.833 341.5,428.167 341.5,433.5C 338.833,433.5 336.167,433.5 333.5,433.5C 333.187,420.754 333.52,408.087 334.5,395.5 Z"/></g>
<g><path style="opacity:0.897" fill="#fefffe" d="M 381.5,395.5 C 384.777,395.216 387.943,395.549 391,396.5C 395.53,407.755 399.863,419.089 404,430.5C 406.658,427.49 408.991,424.157 411,420.5C 412.762,412.601 413.762,404.601 414,396.5C 421.086,395.354 428.253,395.188 435.5,396C 436.487,406.418 436.82,416.918 436.5,427.5C 437.833,427.5 439.167,427.5 440.5,427.5C 440.5,432.167 440.5,436.833 440.5,441.5C 433.5,443.167 430.833,440.5 432.5,433.5C 425.833,433.5 419.167,433.5 412.5,433.5C 414.167,440.5 411.5,443.167 404.5,441.5C 404.5,438.833 404.5,436.167 404.5,433.5C 401.5,433.5 398.5,433.5 395.5,433.5C 395.158,427.663 391.991,425.329 386,426.5C 380.036,424.927 376.536,427.093 375.5,433C 372.854,433.497 370.187,433.664 367.5,433.5C 371.574,420.609 376.241,407.943 381.5,395.5 Z M 421.5,402.5 C 423.833,402.5 426.167,402.5 428.5,402.5C 428.5,410.833 428.5,419.167 428.5,427.5C 424.818,427.665 421.152,427.499 417.5,427C 420.364,419.122 421.698,410.955 421.5,402.5 Z M 385.5,406.5 C 387.531,410.237 389.198,414.237 390.5,418.5C 387.572,419.484 384.572,419.817 381.5,419.5C 382.433,415.035 383.766,410.702 385.5,406.5 Z"/></g>
<g><path style="opacity:0.908" fill="#fefffe" d="M 447.5,395.5 C 455.833,395.5 464.167,395.5 472.5,395.5C 472.5,397.833 472.5,400.167 472.5,402.5C 466.833,402.5 461.167,402.5 455.5,402.5C 455.5,405.167 455.5,407.833 455.5,410.5C 460.844,410.334 466.177,410.501 471.5,411C 472.833,413 472.833,415 471.5,417C 466.177,417.499 460.844,417.666 455.5,417.5C 455.5,420.833 455.5,424.167 455.5,427.5C 461.167,427.5 466.833,427.5 472.5,427.5C 472.5,429.5 472.5,431.5 472.5,433.5C 464.167,433.5 455.833,433.5 447.5,433.5C 447.5,420.833 447.5,408.167 447.5,395.5 Z"/></g>
<g><path style="opacity:0.871" fill="#fefffe" d="M 478.5,395.5 C 480.857,395.337 483.19,395.503 485.5,396C 487.54,399.914 489.707,403.748 492,407.5C 492.203,403.579 492.703,399.745 493.5,396C 495.769,395.242 497.936,395.409 500,396.5C 500.333,400.167 500.667,403.833 501,407.5C 503.167,403.833 505.333,400.167 507.5,396.5C 510.034,395.223 512.534,395.223 515,396.5C 512.634,402.403 509.8,408.236 506.5,414C 510.185,420.202 513.185,426.702 515.5,433.5C 512.813,433.664 510.146,433.497 507.5,433C 505.46,429.086 503.293,425.252 501,421.5C 500.501,425.486 500.334,429.486 500.5,433.5C 497.833,433.5 495.167,433.5 492.5,433.5C 492.666,429.486 492.499,425.486 492,421.5C 489.707,425.252 487.54,429.086 485.5,433C 482.854,433.497 480.187,433.664 477.5,433.5C 480.213,427.073 483.213,420.74 486.5,414.5C 483.772,408.712 480.772,403.045 477.5,397.5C 477.863,396.817 478.196,396.15 478.5,395.5 Z"/></g>
<g><path style="opacity:0.907" fill="#fefffe" d="M 518.5,395.5 C 521.119,395.232 523.619,395.565 526,396.5C 526.499,401.155 526.666,405.821 526.5,410.5C 531.167,410.5 535.833,410.5 540.5,410.5C 540.334,405.821 540.501,401.155 541,396.5C 543.381,395.565 545.881,395.232 548.5,395.5C 548.5,408.167 548.5,420.833 548.5,433.5C 545.833,433.5 543.167,433.5 540.5,433.5C 540.5,428.167 540.5,422.833 540.5,417.5C 535.833,417.5 531.167,417.5 526.5,417.5C 526.5,422.833 526.5,428.167 526.5,433.5C 523.833,433.5 521.167,433.5 518.5,433.5C 518.5,420.833 518.5,408.167 518.5,395.5 Z"/></g>
<g><path style="opacity:0.887" fill="#fefffe" d="M 565.5,395.5 C 582.752,394.929 589.919,403.262 587,420.5C 583.052,432.725 574.885,436.891 562.5,433C 558.132,430.774 555.298,427.274 554,422.5C 553.139,416.415 553.473,410.415 555,404.5C 557.489,400.168 560.989,397.168 565.5,395.5 Z M 567.5,402.5 C 571.192,401.971 574.358,402.971 577,405.5C 580.138,411.543 580.138,417.543 577,423.5C 572.959,428.313 568.625,428.646 564,424.5C 561.165,418.981 560.831,413.314 563,407.5C 564.025,405.313 565.525,403.646 567.5,402.5 Z"/></g>
<g><path style="opacity:0.884" fill="#fefffe" d="M 605.5,395.5 C 610.599,395.175 615.599,395.675 620.5,397C 621.435,399.381 621.768,401.881 621.5,404.5C 603.549,399.285 597.049,405.619 602,423.5C 604.69,425.899 607.857,427.232 611.5,427.5C 614.846,426.83 618.179,426.163 621.5,425.5C 621.808,427.924 621.474,430.257 620.5,432.5C 597.27,437.77 588.103,428.77 593,405.5C 595.892,400.427 600.059,397.094 605.5,395.5 Z"/></g>
<g><path style="opacity:0.832" fill="#fefffe" d="M 628.5,395.5 C 638.839,395.334 649.172,395.5 659.5,396C 660.423,398.041 660.756,400.208 660.5,402.5C 656.5,402.5 652.5,402.5 648.5,402.5C 648.5,412.833 648.5,423.167 648.5,433.5C 645.5,433.5 642.5,433.5 639.5,433.5C 639.5,423.167 639.5,412.833 639.5,402.5C 635.818,402.665 632.152,402.499 628.5,402C 627.232,399.837 627.232,397.67 628.5,395.5 Z"/></g>
<g><path style="opacity:0.87" fill="#fefffe" d="M 695.5,415.5 C 695.5,419.833 695.5,424.167 695.5,428.5C 692.806,430.514 689.806,432.014 686.5,433C 679.842,433.5 673.175,433.666 666.5,433.5C 666.333,421.162 666.5,408.829 667,396.5C 669.667,395.167 672.333,395.167 675,396.5C 675.499,400.821 675.666,405.154 675.5,409.5C 683.163,408.742 689.83,410.742 695.5,415.5 Z M 675.5,416.5 C 678.518,416.335 681.518,416.502 684.5,417C 689.368,419.477 689.701,422.477 685.5,426C 682.243,427.043 678.91,427.543 675.5,427.5C 675.5,423.833 675.5,420.167 675.5,416.5 Z"/></g>
<g><path style="opacity:0.998" fill="#fefffe" d="M -0.5,559.5 C -0.5,541.5 -0.5,523.5 -0.5,505.5C 0.971672,503.866 2.63834,502.366 4.5,501C 107.167,500.333 209.833,500.333 312.5,501C 314.333,502.167 315.833,503.667 317,505.5C 317.667,523.5 317.667,541.5 317,559.5C 315.833,561.333 314.333,562.833 312.5,564C 209.833,564.667 107.167,564.667 4.5,564C 2.63834,562.634 0.971672,561.134 -0.5,559.5 Z"/></g>
<g><path style="opacity:0.825" fill="#fefffe" d="M 486.5,511.5 C 488.527,511.338 490.527,511.505 492.5,512C 495.167,516.667 497.833,516.667 500.5,512C 502.5,511.333 504.5,511.333 506.5,512C 508.005,515.883 506.671,518.55 502.5,520C 498.167,520.667 493.833,520.667 489.5,520C 485.798,517.997 484.798,515.164 486.5,511.5 Z"/></g>
<g><path style="opacity:0.923" fill="#fefffe" d="M 366.5,565.5 C 364.167,565.5 361.833,565.5 359.5,565.5C 359.5,563.167 359.5,560.833 359.5,558.5C 352.5,558.5 345.5,558.5 338.5,558.5C 338.5,560.833 338.5,563.167 338.5,565.5C 335.833,565.5 333.167,565.5 330.5,565.5C 330.174,561.116 330.508,556.783 331.5,552.5C 335.395,550.397 337.562,547.064 338,542.5C 339.163,535.199 339.997,527.866 340.5,520.5C 347.755,520.187 354.921,520.52 362,521.5C 362.5,531.828 362.666,542.161 362.5,552.5C 364.167,552.5 365.833,552.5 367.5,552.5C 366.8,556.798 366.467,561.131 366.5,565.5 Z M 347.5,527.5 C 349.833,527.5 352.167,527.5 354.5,527.5C 354.5,535.833 354.5,544.167 354.5,552.5C 350.818,552.665 347.152,552.499 343.5,552C 346.885,544.218 348.218,536.052 347.5,527.5 Z"/></g>
<g><path style="opacity:0.863" fill="#fefffe" d="M 371.5,520.5 C 373.833,520.5 376.167,520.5 378.5,520.5C 378.334,528.174 378.5,535.841 379,543.5C 383.667,536.167 388.333,528.833 393,521.5C 395.667,520.167 398.333,520.167 401,521.5C 401.5,533.829 401.667,546.162 401.5,558.5C 398.5,558.5 395.5,558.5 392.5,558.5C 392.666,551.492 392.5,544.492 392,537.5C 387.624,544.419 383.124,551.252 378.5,558C 375.854,558.497 373.187,558.664 370.5,558.5C 370.187,545.754 370.52,533.087 371.5,520.5 Z"/></g>
<g><path style="opacity:0.871" fill="#fefffe" d="M 412.5,520.5 C 417.511,520.334 422.511,520.501 427.5,521C 434.836,523.168 437.336,528.001 435,535.5C 431.678,537.908 432.011,539.908 436,541.5C 438.627,551.906 434.46,557.739 423.5,559C 418.398,559.571 413.398,559.071 408.5,557.5C 407.359,555.579 407.192,553.579 408,551.5C 408.414,551.043 408.914,550.709 409.5,550.5C 414.362,552.32 419.362,552.82 424.5,552C 430.015,548.388 429.682,545.388 423.5,543C 419.179,542.501 414.846,542.334 410.5,542.5C 410.244,540.208 410.577,538.041 411.5,536C 415.833,535.667 420.167,535.333 424.5,535C 428.352,532.512 428.352,530.179 424.5,528C 419.139,527.391 413.805,527.558 408.5,528.5C 408.5,526.167 408.5,523.833 408.5,521.5C 410.099,521.768 411.432,521.434 412.5,520.5 Z"/></g>
<g><path style="opacity:0.889" fill="#fefffe" d="M 454.5,520.5 C 458.106,520.211 461.606,520.544 465,521.5C 469.308,533.428 473.808,545.261 478.5,557C 472.925,559.866 469.258,558.366 467.5,552.5C 462.208,551.505 456.875,551.172 451.5,551.5C 450.978,557.509 447.645,559.842 441.5,558.5C 445.433,545.701 449.766,533.035 454.5,520.5 Z M 458.5,532.5 C 459.376,532.369 460.043,532.702 460.5,533.5C 461.638,536.913 462.971,540.246 464.5,543.5C 461.216,544.657 457.882,544.824 454.5,544C 456.135,540.261 457.469,536.427 458.5,532.5 Z"/></g>
<g><path style="opacity:0.904" fill="#fefffe" d="M 482.5,520.5 C 484.792,520.244 486.959,520.577 489,521.5C 489.333,528.833 489.667,536.167 490,543.5C 494.709,535.915 499.542,528.415 504.5,521C 506.81,520.503 509.143,520.337 511.5,520.5C 511.5,533.167 511.5,545.833 511.5,558.5C 508.833,558.5 506.167,558.5 503.5,558.5C 503.666,551.159 503.5,543.826 503,536.5C 498.667,543.5 494.333,550.5 490,557.5C 487.281,558.444 484.448,558.777 481.5,558.5C 481.187,545.754 481.52,533.087 482.5,520.5 Z"/></g>
<g><path style="opacity:0.907" fill="#fefffe" d="M 518.5,520.5 C 521.119,520.232 523.619,520.565 526,521.5C 526.499,526.155 526.666,530.821 526.5,535.5C 531.167,535.5 535.833,535.5 540.5,535.5C 540.334,530.821 540.501,526.155 541,521.5C 543.381,520.565 545.881,520.232 548.5,520.5C 548.5,533.167 548.5,545.833 548.5,558.5C 545.833,558.5 543.167,558.5 540.5,558.5C 540.5,553.167 540.5,547.833 540.5,542.5C 535.833,542.5 531.167,542.5 526.5,542.5C 526.5,547.833 526.5,553.167 526.5,558.5C 523.833,558.5 521.167,558.5 518.5,558.5C 518.5,545.833 518.5,533.167 518.5,520.5 Z"/></g>
</svg>
